# xmcd CD database file generated by OrangeCD 4.3
#
# Track frame offsets:
#	150
#	3111
#	20963
#	39077
#	56906
#	75466
#	80062
#	98419
#	114235
#	132979
#	149940
#	152028
#	173802
#	191946
#	210120
#
# Disc length: 2977 seconds
#
# Revision: 0
# Processed by: cddbd v1.4PL0 Copyright (c) Steve Scherf et al.
# Submitted via: OrangeCD 4.3
#
DISCID=c20b9f0f
DTITLE=Snapper - The Connect
DYEAR=2001
DGENRE=
TTITLE0=In Pursuit Intro...
TTITLE1=Setting It Off
TTITLE2=Sur Walk
TTITLE3=2001
TTITLE4=S/S Academy
TTITLE5=Paroled From Prison (interlude)
TTITLE6=Knock, Knock
TTITLE7=Con-Nect
TTITLE8=Tonight
TTITLE9=Bust Shots
TTITLE10=Prelude
TTITLE11=Dedicated to You
TTITLE12=Ghetto Vallero
TTITLE13=Addicted to Me
TTITLE14=Last Word (Outro)
EXTD=
EXTT0=
EXTT1=
EXTT2=
EXTT3=
EXTT4=
EXTT5=
EXTT6=
EXTT7=
EXTT8=
EXTT9=
EXTT10=
EXTT11=
EXTT12=
EXTT13=
EXTT14=
PLAYORDER=
